  0
SECTION
  2
HEADER
   9
$ACADVER
  1
AC1009
  9
$LIMMIN
 10
-500
 20
-500
  9
$LIMMAX
 10
500
 20
500
  0
ENDSEC
  0
SECTION
  2
TABLES
  0
TABLE
  2
LTYPE
 70
     9
  0
LTYPE
  2
CONTINUOUS
 70
    64
  3
é¿ê¸
 72
    65
 73
     0
 40
0.0
  0
TABLE
  2
LAYER
 70
    2
  0
LAYER
  2
_0-0_
 70
   64
 62
    7
  6
CONTINUOUS
  0
LAYER
  2
ADD_LINE
 70
   64
 62
    7
  6
CONTINUOUS
  0
ENDTAB
  0
ENDSEC
  0
ENDSEC
  0
SECTION
  2
ENTITIES
  0
LINE
  8
  _1
  6
CONTINUOUS
 62
    7
 10
43.0
 20
38.0
 11
43.0
 21
20.0
  0
LINE
  8
  _1
  6
CONTINUOUS
 62
    7
 10
40.0
 20
41.0
 11
22.0
 21
40.99999999999999
  0
LINE
  8
  _1
  6
CONTINUOUS
 62
    7
 10
40.0
 20
41.0
 11
40.148125
 21
40.998125
  0
LINE
  8
  _1
  6
CONTINUOUS
 62
    7
 10
40.148125
 20
40.998125
 11
40.2925
 21
40.9925
  0
LINE
  8
  _1
  6
CONTINUOUS
 62
    7
 10
40.2925
 20
40.9925
 11
40.433125000000004
 21
40.983125
  0
LINE
  8
  _1
  6
CONTINUOUS
 62
    7
 10
40.433125000000004
 20
40.983125
 11
40.57
 21
40.97
  0
LINE
  8
  _1
  6
CONTINUOUS
 62
    7
 10
40.57
 20
40.97
 11
40.703125
 21
40.953125
  0
LINE
  8
  _1
  6
CONTINUOUS
 62
    7
 10
40.703125
 20
40.953125
 11
40.8325
 21
40.9325
  0
LINE
  8
  _1
  6
CONTINUOUS
 62
    7
 10
40.8325
 20
40.9325
 11
40.958125
 21
40.908125
  0
LINE
  8
  _1
  6
CONTINUOUS
 62
    7
 10
40.958125
 20
40.908125
 11
41.08
 21
40.88
  0
LINE
  8
  _1
  6
CONTINUOUS
 62
    7
 10
41.08
 20
40.88
 11
41.198125
 21
40.848125
  0
LINE
  8
  _1
  6
CONTINUOUS
 62
    7
 10
41.198125
 20
40.848125
 11
41.3125
 21
40.8125
  0
LINE
  8
  _1
  6
CONTINUOUS
 62
    7
 10
41.3125
 20
40.8125
 11
41.423125
 21
40.773125
  0
LINE
  8
  _1
  6
CONTINUOUS
 62
    7
 10
41.423125
 20
40.773125
 11
41.53
 21
40.73
  0
LINE
  8
  _1
  6
CONTINUOUS
 62
    7
 10
41.53
 20
40.73
 11
41.633125
 21
40.683125
  0
LINE
  8
  _1
  6
CONTINUOUS
 62
    7
 10
41.633125
 20
40.683125
 11
41.7325
 21
40.6325
  0
LINE
  8
  _1
  6
CONTINUOUS
 62
    7
 10
41.7325
 20
40.6325
 11
41.828125
 21
40.578125
  0
LINE
  8
  _1
  6
CONTINUOUS
 62
    7
 10
41.828125
 20
40.578125
 11
41.92
 21
40.52
  0
LINE
  8
  _1
  6
CONTINUOUS
 62
    7
 10
41.92
 20
40.52
 11
42.008125
 21
40.458125
  0
LINE
  8
  _1
  6
CONTINUOUS
 62
    7
 10
42.008125
 20
40.458125
 11
42.0925
 21
40.3925
  0
LINE
  8
  _1
  6
CONTINUOUS
 62
    7
 10
42.0925
 20
40.3925
 11
42.173125
 21
40.323125
  0
LINE
  8
  _1
  6
CONTINUOUS
 62
    7
 10
42.173125
 20
40.323125
 11
42.25
 21
40.25
  0
LINE
  8
  _1
  6
CONTINUOUS
 62
    7
 10
42.25
 20
40.25
 11
42.323125
 21
40.173125
  0
LINE
  8
  _1
  6
CONTINUOUS
 62
    7
 10
42.323125
 20
40.173125
 11
42.3925
 21
40.0925
  0
LINE
  8
  _1
  6
CONTINUOUS
 62
    7
 10
42.3925
 20
40.0925
 11
42.458125
 21
40.008125
  0
LINE
  8
  _1
  6
CONTINUOUS
 62
    7
 10
42.458125
 20
40.008125
 11
42.52
 21
39.92
  0
LINE
  8
  _1
  6
CONTINUOUS
 62
    7
 10
42.52
 20
39.92
 11
42.578125
 21
39.828125
  0
LINE
  8
  _1
  6
CONTINUOUS
 62
    7
 10
42.578125
 20
39.828125
 11
42.6325
 21
39.7325
  0
LINE
  8
  _1
  6
CONTINUOUS
 62
    7
 10
42.6325
 20
39.7325
 11
42.683125000000004
 21
39.633125
  0
LINE
  8
  _1
  6
CONTINUOUS
 62
    7
 10
42.683125000000004
 20
39.633125
 11
42.73
 21
39.53
  0
LINE
  8
  _1
  6
CONTINUOUS
 62
    7
 10
42.73
 20
39.53
 11
42.773125
 21
39.423125
  0
LINE
  8
  _1
  6
CONTINUOUS
 62
    7
 10
42.773125
 20
39.423125
 11
42.8125
 21
39.3125
  0
LINE
  8
  _1
  6
CONTINUOUS
 62
    7
 10
42.8125
 20
39.3125
 11
42.848125
 21
39.198125
  0
LINE
  8
  _1
  6
CONTINUOUS
 62
    7
 10
42.848125
 20
39.198125
 11
42.88
 21
39.08
  0
LINE
  8
  _1
  6
CONTINUOUS
 62
    7
 10
42.88
 20
39.08
 11
42.908125
 21
38.958125
  0
LINE
  8
  _1
  6
CONTINUOUS
 62
    7
 10
42.908125
 20
38.958125
 11
42.9325
 21
38.8325
  0
LINE
  8
  _1
  6
CONTINUOUS
 62
    7
 10
42.9325
 20
38.8325
 11
42.953125
 21
38.703125
  0
LINE
  8
  _1
  6
CONTINUOUS
 62
    7
 10
42.953125
 20
38.703125
 11
42.97
 21
38.57
  0
LINE
  8
  _1
  6
CONTINUOUS
 62
    7
 10
42.97
 20
38.57
 11
42.983125
 21
38.433125
  0
LINE
  8
  _1
  6
CONTINUOUS
 62
    7
 10
42.983125
 20
38.433125
 11
42.9925
 21
38.2925
  0
LINE
  8
  _1
  6
CONTINUOUS
 62
    7
 10
42.9925
 20
38.2925
 11
42.998125
 21
38.148125
  0
LINE
  8
  _1
  6
CONTINUOUS
 62
    7
 10
42.998125
 20
38.148125
 11
43.0
 21
38.0
  0
LINE
  8
  _1
  6
CONTINUOUS
 62
    7
 10
112.0
 20
40.999999999999886
 11
94.0
 21
40.999999999999936
  0
LINE
  8
  _1
  6
CONTINUOUS
 62
    7
 10
94.0
 20
40.999999999999936
 11
93.851875
 21
40.998125000000044
  0
LINE
  8
  _1
  6
CONTINUOUS
 62
    7
 10
93.851875
 20
40.998125000000044
 11
93.70750000000001
 21
40.99249999999997
  0
LINE
  8
  _1
  6
CONTINUOUS
 62
    7
 10
93.70750000000001
 20
40.99249999999997
 11
93.56687500000001
 21
40.98312499999998
  0
LINE
  8
  _1
  6
CONTINUOUS
 62
    7
 10
93.56687500000001
 20
40.98312499999998
 11
93.43
 21
40.969999999999956
  0
LINE
  8
  _1
  6
CONTINUOUS
 62
    7
 10
93.43
 20
40.969999999999956
 11
93.296875
 21
40.95312500000002
  0
LINE
  8
  _1
  6
CONTINUOUS
 62
    7
 10
93.296875
 20
40.95312500000002
 11
93.16749999999999
 21
40.932500000000076
  0
LINE
  8
  _1
  6
CONTINUOUS
 62
    7
 10
93.16749999999999
 20
40.932500000000076
 11
93.041875
 21
40.90812499999999
  0
LINE
  8
  _1
  6
CONTINUOUS
 62
    7
 10
93.041875
 20
40.90812499999999
 11
92.92
 21
40.879999999999974
  0
LINE
  8
  _1
  6
CONTINUOUS
 62
    7
 10
92.92
 20
40.879999999999974
 11
92.801875
 21
40.84812500000014
  0
LINE
  8
  _1
  6
CONTINUOUS
 62
    7
 10
92.801875
 20
40.84812500000014
 11
92.6875
 21
40.812500000000036
  0
LINE
  8
  _1
  6
CONTINUOUS
 62
    7
 10
92.6875
 20
40.812500000000036
 11
92.576875
 21
40.77312499999994
  0
LINE
  8
  _1
  6
CONTINUOUS
 62
    7
 10
92.576875
 20
40.77312499999994
 11
92.47
 21
40.72999999999995
  0
LINE
  8
  _1
  6
CONTINUOUS
 62
    7
 10
92.47
 20
40.72999999999995
 11
92.366875
 21
40.68312500000008
  0
LINE
  8
  _1
  6
CONTINUOUS
 62
    7
 10
92.366875
 20
40.68312500000008
 11
92.2675
 21
40.63249999999988
  0
LINE
  8
  _1
  6
CONTINUOUS
 62
    7
 10
92.2675
 20
40.63249999999988
 11
92.171875
 21
40.57812500000004
  0
LINE
  8
  _1
  6
CONTINUOUS
 62
    7
 10
92.171875
 20
40.57812500000004
 11
92.08
 21
40.51999999999986
  0
LINE
  8
  _1
  6
CONTINUOUS
 62
    7
 10
92.08
 20
40.51999999999986
 11
91.991875
 21
40.45812500000007
  0
LINE
  8
  _1
  6
CONTINUOUS
 62
    7
 10
91.991875
 20
40.45812500000007
 11
91.9075
 21
40.39250000000008
  0
LINE
  8
  _1
  6
CONTINUOUS
 62
    7
 10
91.9075
 20
40.39250000000008
 11
91.826875
 21
40.32312499999989
  0
LINE
  8
  _1
  6
CONTINUOUS
 62
    7
 10
91.826875
 20
40.32312499999989
 11
91.75
 21
40.24999999999997
  0
LINE
  8
  _1
  6
CONTINUOUS
 62
    7
 10
91.75
 20
40.24999999999997
 11
91.676875
 21
40.17312499999998
  0
LINE
  8
  _1
  6
CONTINUOUS
 62
    7
 10
91.676875
 20
40.17312499999998
 11
91.6075
 21
40.092500000000186
  0
LINE
  8
  _1
  6
CONTINUOUS
 62
    7
 10
91.6075
 20
40.092500000000186
 11
91.541875
 21
40.00812500000001
  0
LINE
  8
  _1
  6
CONTINUOUS
 62
    7
 10
91.541875
 20
40.00812500000001
 11
91.47999999999999
 21
39.91999999999997
  0
LINE
  8
  _1
  6
CONTINUOUS
 62
    7
 10
91.47999999999999
 20
39.91999999999997
 11
91.421875
 21
39.828125000000064
  0
LINE
  8
  _1
  6
CONTINUOUS
 62
    7
 10
91.421875
 20
39.828125000000064
 11
91.3675
 21
39.732499999999945
  0
LINE
  8
  _1
  6
CONTINUOUS
 62
    7
 10
91.3675
 20
39.732499999999945
 11
91.316875
 21
39.6331250000001
  0
LINE
  8
  _1
  6
CONTINUOUS
 62
    7
 10
91.316875
 20
39.6331250000001
 11
91.27
 21
39.53000000000004
  0
LINE
  8
  _1
  6
CONTINUOUS
 62
    7
 10
91.27
 20
39.53000000000004
 11
91.226875
 21
39.42312500000016
  0
LINE
  8
  _1
  6
CONTINUOUS
 62
    7
 10
91.226875
 20
39.42312500000016
 11
91.1875
 21
39.312499999999886
  0
LINE
  8
  _1
  6
CONTINUOUS
 62
    7
 10
91.1875
 20
39.312499999999886
 11
91.15187499999999
 21
39.198125000000125
  0
LINE
  8
  _1
  6
CONTINUOUS
 62
    7
 10
91.15187499999999
 20
39.198125000000125
 11
91.12
 21
39.079999999999956
  0
LINE
  8
  _1
  6
CONTINUOUS
 62
    7
 10
91.12
 20
39.079999999999956
 11
91.091875
 21
38.95812500000036
  0
LINE
  8
  _1
  6
CONTINUOUS
 62
    7
 10
91.091875
 20
38.95812500000036
 11
91.0675
 21
38.83250000000009
  0
LINE
  8
  _1
  6
CONTINUOUS
 62
    7
 10
91.0675
 20
38.83250000000009
 11
91.046875
 21
38.70312499999997
  0
LINE
  8
  _1
  6
CONTINUOUS
 62
    7
 10
91.046875
 20
38.70312499999997
 11
91.03
 21
38.57000000000012
  0
LINE
  8
  _1
  6
CONTINUOUS
 62
    7
 10
91.03
 20
38.57000000000012
 11
91.016875
 21
38.43312499999899
  0
LINE
  8
  _1
  6
CONTINUOUS
 62
    7
 10
91.016875
 20
38.43312499999899
 11
91.0075
 21
38.29249999999966
  0
LINE
  8
  _1
  6
CONTINUOUS
 62
    7
 10
91.0075
 20
38.29249999999966
 11
91.001875
 21
38.148125000000064
  0
LINE
  8
  _1
  6
CONTINUOUS
 62
    7
 10
91.001875
 20
38.148125000000064
 11
91.0
 21
38.0
  0
LINE
  8
  _1
  6
CONTINUOUS
 62
    7
 10
91.0
 20
38.0
 11
91.0
 21
20.000000000000004
  0
LINE
  8
  _1
  6
CONTINUOUS
 62
    7
 10
91.0
 20
110.0
 11
91.0
 21
91.99999999999999
  0
LINE
  8
  _1
  6
CONTINUOUS
 62
    7
 10
91.0
 20
91.99999999999999
 11
91.00187499999998
 21
91.851875
  0
LINE
  8
  _1
  6
CONTINUOUS
 62
    7
 10
91.00187499999998
 20
91.851875
 11
91.0075
 21
91.7075
  0
LINE
  8
  _1
  6
CONTINUOUS
 62
    7
 10
91.0075
 20
91.7075
 11
91.016875
 21
91.56687499999998
  0
LINE
  8
  _1
  6
CONTINUOUS
 62
    7
 10
91.016875
 20
91.56687499999998
 11
91.03
 21
91.43
  0
LINE
  8
  _1
  6
CONTINUOUS
 62
    7
 10
91.03
 20
91.43
 11
91.046875
 21
91.296875
  0
LINE
  8
  _1
  6
CONTINUOUS
 62
    7
 10
91.046875
 20
91.296875
 11
91.06750000000001
 21
91.16749999999999
  0
LINE
  8
  _1
  6
CONTINUOUS
 62
    7
 10
91.06750000000001
 20
91.16749999999999
 11
91.09187499999999
 21
91.041875
  0
LINE
  8
  _1
  6
CONTINUOUS
 62
    7
 10
91.09187499999999
 20
91.041875
 11
91.11999999999999
 21
90.92000000000002
  0
LINE
  8
  _1
  6
CONTINUOUS
 62
    7
 10
91.11999999999999
 20
90.92000000000002
 11
91.15187499999999
 21
90.80187500000002
  0
LINE
  8
  _1
  6
CONTINUOUS
 62
    7
 10
91.15187499999999
 20
90.80187500000002
 11
91.1875
 21
90.6875
  0
LINE
  8
  _1
  6
CONTINUOUS
 62
    7
 10
91.1875
 20
90.6875
 11
91.226875
 21
90.576875
  0
LINE
  8
  _1
  6
CONTINUOUS
 62
    7
 10
91.226875
 20
90.576875
 11
91.27000000000001
 21
90.47000000000001
  0
LINE
  8
  _1
  6
CONTINUOUS
 62
    7
 10
91.27000000000001
 20
90.47000000000001
 11
91.316875
 21
90.366875
  0
LINE
  8
  _1
  6
CONTINUOUS
 62
    7
 10
91.316875
 20
90.366875
 11
91.3675
 21
90.2675
  0
LINE
  8
  _1
  6
CONTINUOUS
 62
    7
 10
91.3675
 20
90.2675
 11
91.421875
 21
90.17187499999997
  0
LINE
  8
  _1
  6
CONTINUOUS
 62
    7
 10
91.421875
 20
90.17187499999997
 11
91.48
 21
90.08
  0
LINE
  8
  _1
  6
CONTINUOUS
 62
    7
 10
91.48
 20
90.08
 11
91.541875
 21
89.991875
  0
LINE
  8
  _1
  6
CONTINUOUS
 62
    7
 10
91.541875
 20
89.991875
 11
91.60750000000002
 21
89.90749999999998
  0
LINE
  8
  _1
  6
CONTINUOUS
 62
    7
 10
91.60750000000002
 20
89.90749999999998
 11
91.676875
 21
89.826875
  0
LINE
  8
  _1
  6
CONTINUOUS
 62
    7
 10
91.676875
 20
89.826875
 11
91.75
 21
89.75
  0
LINE
  8
  _1
  6
CONTINUOUS
 62
    7
 10
91.75
 20
89.75
 11
91.826875
 21
89.676875
  0
LINE
  8
  _1
  6
CONTINUOUS
 62
    7
 10
91.826875
 20
89.676875
 11
91.9075
 21
89.6075
  0
LINE
  8
  _1
  6
CONTINUOUS
 62
    7
 10
91.9075
 20
89.6075
 11
91.99187500000001
 21
89.541875
  0
LINE
  8
  _1
  6
CONTINUOUS
 62
    7
 10
91.99187500000001
 20
89.541875
 11
92.08
 21
89.48
  0
LINE
  8
  _1
  6
CONTINUOUS
 62
    7
 10
92.08
 20
89.48
 11
92.171875
 21
89.421875
  0
LINE
  8
  _1
  6
CONTINUOUS
 62
    7
 10
92.171875
 20
89.421875
 11
92.2675
 21
89.3675
  0
LINE
  8
  _1
  6
CONTINUOUS
 62
    7
 10
92.2675
 20
89.3675
 11
92.366875
 21
89.31687499999998
  0
LINE
  8
  _1
  6
CONTINUOUS
 62
    7
 10
92.366875
 20
89.31687499999998
 11
92.47
 21
89.26999999999998
  0
LINE
  8
  _1
  6
CONTINUOUS
 62
    7
 10
92.47
 20
89.26999999999998
 11
92.576875
 21
89.226875
  0
LINE
  8
  _1
  6
CONTINUOUS
 62
    7
 10
92.576875
 20
89.226875
 11
92.6875
 21
89.1875
  0
LINE
  8
  _1
  6
CONTINUOUS
 62
    7
 10
92.6875
 20
89.1875
 11
92.801875
 21
89.15187500000002
  0
LINE
  8
  _1
  6
CONTINUOUS
 62
    7
 10
92.801875
 20
89.15187500000002
 11
92.92
 21
89.12
  0
LINE
  8
  _1
  6
CONTINUOUS
 62
    7
 10
92.92
 20
89.12
 11
93.041875
 21
89.09187499999999
  0
LINE
  8
  _1
  6
CONTINUOUS
 62
    7
 10
93.041875
 20
89.09187499999999
 11
93.16749999999999
 21
89.06750000000001
  0
LINE
  8
  _1
  6
CONTINUOUS
 62
    7
 10
93.16749999999999
 20
89.06750000000001
 11
93.296875
 21
89.046875
  0
LINE
  8
  _1
  6
CONTINUOUS
 62
    7
 10
93.296875
 20
89.046875
 11
93.42999999999999
 21
89.03000000000002
  0
LINE
  8
  _1
  6
CONTINUOUS
 62
    7
 10
93.42999999999999
 20
89.03000000000002
 11
93.56687500000001
 21
89.01687499999998
  0
LINE
  8
  _1
  6
CONTINUOUS
 62
    7
 10
93.56687500000001
 20
89.01687499999998
 11
93.70750000000001
 21
89.0075
  0
LINE
  8
  _1
  6
CONTINUOUS
 62
    7
 10
93.70750000000001
 20
89.0075
 11
93.851875
 21
89.001875
  0
LINE
  8
  _1
  6
CONTINUOUS
 62
    7
 10
93.851875
 20
89.001875
 11
94.0
 21
89.0
  0
LINE
  8
  _1
  6
CONTINUOUS
 62
    7
 10
94.0
 20
89.0
 11
112.0
 21
89.0
  0
LINE
  8
  _1
  6
CONTINUOUS
 62
    7
 10
43.0
 20
109.99999999999999
 11
43.00000000000001
 21
92.0
  0
LINE
  8
  _1
  6
CONTINUOUS
 62
    7
 10
43.00000000000001
 20
92.0
 11
42.99812500000001
 21
91.851875
  0
LINE
  8
  _1
  6
CONTINUOUS
 62
    7
 10
42.99812500000001
 20
91.851875
 11
42.99250000000001
 21
91.70750000000001
  0
LINE
  8
  _1
  6
CONTINUOUS
 62
    7
 10
42.99250000000001
 20
91.70750000000001
 11
42.98312500000001
 21
91.566875
  0
LINE
  8
  _1
  6
CONTINUOUS
 62
    7
 10
42.98312500000001
 20
91.566875
 11
42.97
 21
91.43
  0
LINE
  8
  _1
  6
CONTINUOUS
 62
    7
 10
42.97
 20
91.43
 11
42.95312500000001
 21
91.296875
  0
LINE
  8
  _1
  6
CONTINUOUS
 62
    7
 10
42.95312500000001
 20
91.296875
 11
42.932500000000005
 21
91.1675
  0
LINE
  8
  _1
  6
CONTINUOUS
 62
    7
 10
42.932500000000005
 20
91.1675
 11
42.908125000000005
 21
91.041875
  0
LINE
  8
  _1
  6
CONTINUOUS
 62
    7
 10
42.908125000000005
 20
91.041875
 11
42.87999999999999
 21
90.92
  0
LINE
  8
  _1
  6
CONTINUOUS
 62
    7
 10
42.87999999999999
 20
90.92
 11
42.84812499999999
 21
90.80187500000001
  0
LINE
  8
  _1
  6
CONTINUOUS
 62
    7
 10
42.84812499999999
 20
90.80187500000001
 11
42.81249999999999
 21
90.6875
  0
LINE
  8
  _1
  6
CONTINUOUS
 62
    7
 10
42.81249999999999
 20
90.6875
 11
42.77312499999999
 21
90.576875
  0
LINE
  8
  _1
  6
CONTINUOUS
 62
    7
 10
42.77312499999999
 20
90.576875
 11
42.730000000000004
 21
90.47
  0
LINE
  8
  _1
  6
CONTINUOUS
 62
    7
 10
42.730000000000004
 20
90.47
 11
42.68312500000001
 21
90.36687500000001
  0
LINE
  8
  _1
  6
CONTINUOUS
 62
    7
 10
42.68312500000001
 20
90.36687500000001
 11
42.632499999999986
 21
90.26749999999998
  0
LINE
  8
  _1
  6
CONTINUOUS
 62
    7
 10
42.632499999999986
 20
90.26749999999998
 11
42.578125
 21
90.171875
  0
LINE
  8
  _1
  6
CONTINUOUS
 62
    7
 10
42.578125
 20
90.171875
 11
42.519999999999996
 21
90.08
  0
LINE
  8
  _1
  6
CONTINUOUS
 62
    7
 10
42.519999999999996
 20
90.08
 11
42.458124999999995
 21
89.991875
  0
LINE
  8
  _1
  6
CONTINUOUS
 62
    7
 10
42.458124999999995
 20
89.991875
 11
42.3925
 21
89.9075
  0
LINE
  8
  _1
  6
CONTINUOUS
 62
    7
 10
42.3925
 20
89.9075
 11
42.323125
 21
89.826875
  0
LINE
  8
  _1
  6
CONTINUOUS
 62
    7
 10
42.323125
 20
89.826875
 11
42.24999999999999
 21
89.75
  0
LINE
  8
  _1
  6
CONTINUOUS
 62
    7
 10
42.24999999999999
 20
89.75
 11
42.173125
 21
89.676875
  0
LINE
  8
  _1
  6
CONTINUOUS
 62
    7
 10
42.173125
 20
89.676875
 11
42.09249999999999
 21
89.60750000000002
  0
LINE
  8
  _1
  6
CONTINUOUS
 62
    7
 10
42.09249999999999
 20
89.60750000000002
 11
42.008124999999986
 21
89.541875
  0
LINE
  8
  _1
  6
CONTINUOUS
 62
    7
 10
42.008124999999986
 20
89.541875
 11
41.919999999999995
 21
89.47999999999999
  0
LINE
  8
  _1
  6
CONTINUOUS
 62
    7
 10
41.919999999999995
 20
89.47999999999999
 11
41.82812499999999
 21
89.421875
  0
LINE
  8
  _1
  6
CONTINUOUS
 62
    7
 10
41.82812499999999
 20
89.421875
 11
41.73249999999999
 21
89.3675
  0
LINE
  8
  _1
  6
CONTINUOUS
 62
    7
 10
41.73249999999999
 20
89.3675
 11
41.633124999999986
 21
89.31687500000001
  0
LINE
  8
  _1
  6
CONTINUOUS
 62
    7
 10
41.633124999999986
 20
89.31687500000001
 11
41.53000000000001
 21
89.27000000000001
  0
LINE
  8
  _1
  6
CONTINUOUS
 62
    7
 10
41.53000000000001
 20
89.27000000000001
 11
41.423125
 21
89.226875
  0
LINE
  8
  _1
  6
CONTINUOUS
 62
    7
 10
41.423125
 20
89.226875
 11
41.31249999999999
 21
89.1875
  0
LINE
  8
  _1
  6
CONTINUOUS
 62
    7
 10
41.31249999999999
 20
89.1875
 11
41.19812500000001
 21
89.15187499999999
  0
LINE
  8
  _1
  6
CONTINUOUS
 62
    7
 10
41.19812500000001
 20
89.15187499999999
 11
41.08
 21
89.12
  0
LINE
  8
  _1
  6
CONTINUOUS
 62
    7
 10
41.08
 20
89.12
 11
40.958125
 21
89.091875
  0
LINE
  8
  _1
  6
CONTINUOUS
 62
    7
 10
40.958125
 20
89.091875
 11
40.83249999999999
 21
89.0675
  0
LINE
  8
  _1
  6
CONTINUOUS
 62
    7
 10
40.83249999999999
 20
89.0675
 11
40.70312499999999
 21
89.046875
  0
LINE
  8
  _1
  6
CONTINUOUS
 62
    7
 10
40.70312499999999
 20
89.046875
 11
40.57
 21
89.03
  0
LINE
  8
  _1
  6
CONTINUOUS
 62
    7
 10
40.57
 20
89.03
 11
40.433125000000004
 21
89.016875
  0
LINE
  8
  _1
  6
CONTINUOUS
 62
    7
 10
40.433125000000004
 20
89.016875
 11
40.2925
 21
89.0075
  0
LINE
  8
  _1
  6
CONTINUOUS
 62
    7
 10
40.2925
 20
89.0075
 11
40.14812499999999
 21
89.001875
  0
LINE
  8
  _1
  6
CONTINUOUS
 62
    7
 10
40.14812499999999
 20
89.001875
 11
40.0
 21
89.0
  0
LINE
  8
  _1
  6
CONTINUOUS
 62
    7
 10
40.0
 20
89.0
 11
22.000000000000004
 21
89.0
  0
LINE
  8
  _1
  6
CONTINUOUS
 62
    7
 10
43.0
 20
109.99999999999999
 11
91.0
 21
110.0
  0
LINE
  8
  _1
  6
CONTINUOUS
 62
    7
 10
112.0
 20
89.0
 11
112.0
 21
40.999999999999886
  0
LINE
  8
  _1
  6
CONTINUOUS
 62
    7
 10
91.0
 20
20.000000000000004
 11
43.0
 21
20.0
  0
LINE
  8
  _1
  6
CONTINUOUS
 62
    7
 10
22.0
 20
40.99999999999999
 11
22.000000000000004
 21
89.0
  0
LINE
  8
  _1
  6
CONTINUOUS
 62
    7
 10
43.00000000000001
 20
120.0
 11
91.00000000000001
 21
119.99999999999999
  0
LINE
  8
  _1
  6
CONTINUOUS
 62
    7
 10
122.0
 20
89.0
 11
122.0
 21
41.000000000000064
  0
LINE
  8
  _1
  6
CONTINUOUS
 62
    7
 10
90.99999999999997
 20
9.999999999999979
 11
42.99999999999998
 21
10.0
  0
LINE
  8
  _1
  6
CONTINUOUS
 62
    7
 10
12.0
 20
41.0
 11
11.99999999999999
 21
89.0
  0
LINE
  8
  _1
  6
CONTINUOUS
 62
    7
 10
43.00000000000001
 20
120.0
 11
43.0
 21
109.99999999999999
  0
LINE
  8
  _1
  6
CONTINUOUS
 62
    7
 10
91.00000000000001
 20
119.99999999999999
 11
91.0
 21
110.0
  0
LINE
  8
  _1
  6
CONTINUOUS
 62
    7
 10
122.0
 20
89.0
 11
112.0
 21
89.0
  0
LINE
  8
  _1
  6
CONTINUOUS
 62
    7
 10
122.0
 20
41.000000000000064
 11
112.0
 21
40.999999999999886
  0
LINE
  8
  _1
  6
CONTINUOUS
 62
    7
 10
90.99999999999997
 20
9.999999999999979
 11
91.0
 21
20.000000000000004
  0
LINE
  8
  _1
  6
CONTINUOUS
 62
    7
 10
42.99999999999998
 20
10.0
 11
43.0
 21
20.0
  0
LINE
  8
  _1
  6
CONTINUOUS
 62
    7
 10
12.0
 20
41.0
 11
22.0
 21
40.99999999999999
  0
LINE
  8
  _1
  6
CONTINUOUS
 62
    7
 10
11.99999999999999
 20
89.0
 11
22.000000000000004
 21
89.0
  0
LINE
  8
  _2
  6
CONTINUOUS
 62
    7
 10
18.999999999999993
 20
142.0
 11
19.00000000000002
 21
198.00000000000003
  0
LINE
  8
  _2
  6
CONTINUOUS
 62
    7
 10
19.00000000000002
 20
198.00000000000003
 11
70.0
 21
198.0
  0
LINE
  8
  _2
  6
CONTINUOUS
 62
    7
 10
18.999999999999993
 20
142.0
 11
70.0
 21
142.0
  0
LINE
  8
  _2
  6
CONTINUOUS
 62
    7
 10
19.00000000000002
 20
198.00000000000003
 11
8.999999999999979
 21
198.0
  0
LINE
  8
  _2
  6
CONTINUOUS
 62
    7
 10
18.999999999999993
 20
142.0
 11
8.999999999999993
 21
142.0
  0
LINE
  8
  _2
  6
CONTINUOUS
 62
    7
 10
70.0
 20
208.0
 11
8.999999999999993
 21
208.0
  0
LINE
  8
  _2
  6
CONTINUOUS
 62
    7
 10
8.999999999999993
 20
208.0
 11
8.999999999999986
 21
132.0
  0
LINE
  8
  _2
  6
CONTINUOUS
 62
    7
 10
8.999999999999986
 20
132.0
 11
70.0
 21
132.0
  0
LINE
  8
  _2
  6
CONTINUOUS
 62
    7
 10
70.0
 20
208.0
 11
70.0
 21
132.0
  0
LINE
  8
  _2
  6
CONTINUOUS
 62
    7
 10
70.0
 20
198.0
 11
121.0
 21
198.0
  0
LINE
  8
  _2
  6
CONTINUOUS
 62
    7
 10
121.0
 20
198.0
 11
121.0
 21
142.0
  0
LINE
  8
  _2
  6
CONTINUOUS
 62
    7
 10
121.0
 20
142.0
 11
70.0
 21
142.0
  0
LINE
  8
  _2
  6
CONTINUOUS
 62
    7
 10
70.0
 20
208.0
 11
131.00000000000003
 21
208.0
  0
LINE
  8
  _2
  6
CONTINUOUS
 62
    7
 10
131.00000000000003
 20
208.0
 11
131.00000000000003
 21
132.0
  0
LINE
  8
  _2
  6
CONTINUOUS
 62
    7
 10
131.00000000000003
 20
132.0
 11
70.0
 21
132.0
  0
LINE
  8
  _2
  6
CONTINUOUS
 62
    7
 10
121.0
 20
198.0
 11
131.00000000000003
 21
198.0
  0
LINE
  8
  _2
  6
CONTINUOUS
 62
    7
 10
121.0
 20
142.0
 11
131.0
 21
142.0
  0
LINE
  8
  _3
  6
CONTINUOUS
 62
    7
 10
19.00000000000003
 20
263.00000000000006
 11
18.999999999999993
 21
222.0
  0
LINE
  8
  _3
  6
CONTINUOUS
 62
    7
 10
70.0
 20
222.0
 11
18.999999999999993
 21
222.0
  0
LINE
  8
  _3
  6
CONTINUOUS
 62
    7
 10
70.0
 20
263.0
 11
19.00000000000003
 21
263.00000000000006
  0
LINE
  8
  _3
  6
CONTINUOUS
 62
    7
 10
70.0
 20
212.0
 11
8.999999999999972
 21
212.0000000000001
  0
LINE
  8
  _3
  6
CONTINUOUS
 62
    7
 10
8.999999999999972
 20
212.0000000000001
 11
9.000000000000007
 21
273.0
  0
LINE
  8
  _3
  6
CONTINUOUS
 62
    7
 10
9.000000000000007
 20
273.0
 11
70.0
 21
273.0
  0
LINE
  8
  _3
  6
CONTINUOUS
 62
    7
 10
70.0
 20
273.0
 11
70.0
 21
212.0
  0
LINE
  8
  _3
  6
CONTINUOUS
 62
    7
 10
19.00000000000003
 20
263.00000000000006
 11
9.000000000000014
 21
263.00000000000006
  0
LINE
  8
  _3
  6
CONTINUOUS
 62
    7
 10
18.999999999999993
 20
222.0
 11
8.999999999999993
 21
222.0
  0
LINE
  8
  _3
  6
CONTINUOUS
 62
    7
 10
70.0
 20
222.0
 11
121.0
 21
222.0
  0
LINE
  8
  _3
  6
CONTINUOUS
 62
    7
 10
121.0
 20
222.0
 11
120.99999999999997
 21
263.00000000000006
  0
LINE
  8
  _3
  6
CONTINUOUS
 62
    7
 10
120.99999999999997
 20
263.00000000000006
 11
70.0
 21
263.0
  0
LINE
  8
  _3
  6
CONTINUOUS
 62
    7
 10
70.0
 20
212.0
 11
131.0
 21
211.99999999999994
  0
LINE
  8
  _3
  6
CONTINUOUS
 62
    7
 10
131.0
 20
211.99999999999994
 11
131.0
 21
273.0
  0
LINE
  8
  _3
  6
CONTINUOUS
 62
    7
 10
131.0
 20
273.0
 11
70.0
 21
273.0
  0
LINE
  8
  _3
  6
CONTINUOUS
 62
    7
 10
120.99999999999997
 20
263.00000000000006
 11
131.00000000000003
 21
263.0
  0
LINE
  8
  _3
  6
CONTINUOUS
 62
    7
 10
121.0
 20
222.0
 11
131.0
 21
221.99999999999997
  0
LINE
  8
  _4
  6
CONTINUOUS
 62
    7
 10
152.0
 20
163.0
 11
151.99999999999994
 21
13.0
  0
LINE
  8
  _4
  6
CONTINUOUS
 62
    7
 10
172.0
 20
163.0
 11
171.99999999999986
 21
13.0
  0
LINE
  8
  _4
  6
CONTINUOUS
 62
    7
 10
152.0
 20
163.0
 11
172.0
 21
163.0
  0
LINE
  8
  _4
  6
CONTINUOUS
 62
    7
 10
142.0
 20
163.0
 11
141.99999999999997
 21
13.0
  0
LINE
  8
  _4
  6
CONTINUOUS
 62
    7
 10
141.99999999999997
 20
13.0
 11
181.99999999999997
 21
13.0
  0
LINE
  8
  _4
  6
CONTINUOUS
 62
    7
 10
181.99999999999997
 20
13.0
 11
182.0
 21
163.0
  0
LINE
  8
  _4
  6
CONTINUOUS
 62
    7
 10
182.0
 20
163.0
 11
142.0
 21
163.0
  0
LINE
  8
  _0
  6
CONTINUOUS
 62
    9
 10
136.0
 20
270.0
 11
186.0
 21
270.0
  0
LINE
  8
  _0
  6
CONTINUOUS
 62
    9
 10
136.0
 20
220.0
 11
186.0
 21
220.0
  0
LINE
  8
  _0
  6
CONTINUOUS
 62
    9
 10
136.0
 20
270.0
 11
136.0
 21
220.0
  0
LINE
  8
  _0
  6
CONTINUOUS
 62
    9
 10
186.0
 20
270.0
 11
186.0
 21
220.0
  0
ENDSEC
  0
EOF
